<?xml version="1.0" encoding="UTF-8" standalone="no"?>
<svg
   viewBox="0 0 664.46667 784.25336"
   height="784.25336"
   width="664.46667"
   xml:space="preserve"
   id="svg2"
   version="1.1"
   sodipodi:docname="region-kronoberg_logo_vit.svg"
   inkscape:version="1.3.2 (091e20e, 2023-11-25, custom)"
   xmlns:inkscape="http://www.inkscape.org/namespaces/inkscape"
   xmlns:sodipodi="http://sodipodi.sourceforge.net/DTD/sodipodi-0.dtd"
   xmlns="http://www.w3.org/2000/svg"
   xmlns:svg="http://www.w3.org/2000/svg"
   xmlns:rdf="http://www.w3.org/1999/02/22-rdf-syntax-ns#"
   xmlns:cc="http://creativecommons.org/ns#"
   xmlns:dc="http://purl.org/dc/elements/1.1/"><sodipodi:namedview
     id="namedview1"
     pagecolor="#ffffff"
     bordercolor="#000000"
     borderopacity="0.25"
     inkscape:showpageshadow="2"
     inkscape:pageopacity="0.0"
     inkscape:pagecheckerboard="0"
     inkscape:deskcolor="#d1d1d1"
     inkscape:zoom="1.4497866"
     inkscape:cx="332.46272"
     inkscape:cy="281.76561"
     inkscape:window-width="2560"
     inkscape:window-height="1351"
     inkscape:window-x="-9"
     inkscape:window-y="-9"
     inkscape:window-maximized="1"
     inkscape:current-layer="svg2" /><metadata
     id="metadata8"><rdf:RDF><cc:Work
         rdf:about=""><dc:format>image/svg+xml</dc:format><dc:type
           rdf:resource="http://purl.org/dc/dcmitype/StillImage" /></cc:Work></rdf:RDF></metadata><defs
     id="defs6" /><g
     transform="matrix(1.3333333,0,0,-1.3333333,0,784.25333)"
     id="g10"
     style="fill:#ffffff"><g
       transform="scale(0.1)"
       id="g12"
       style="fill:#ffffff"><path
         id="path14"
         style="fill:#ffffff;fill-opacity:1;fill-rule:nonzero;stroke:none"
         d="M 3375.84,5871.64 H 3252.7 c 0,0 -739,0 -739,-788.48 v -147.14 -897.24 h 985.32 c 0,0 739.01,-6.93 739.01,781.58 v 123.51 927.77 h -862.19 v 0" /><path
         id="path16"
         style="fill:#ffffff;fill-opacity:1;fill-rule:nonzero;stroke:none"
         d="m 3252.7,2000.86 c 0,0 -739,0 -739,788.44 v 123.57 923.09 h 862.14 123.18 c 0,0 739.01,4.66 739.01,-783.8 V 2905.01 2000.86 H 3252.7 v 0" /><path
         id="path18"
         style="fill:#ffffff;fill-opacity:1;fill-rule:nonzero;stroke:none"
         d="m 1247.05,5178.08 c 0,144.4 117,261.41 261.41,261.41 144.4,0 261.4,-117.01 261.4,-261.41 0,-144.38 -117,-261.38 -261.4,-261.38 -144.41,0 -261.41,117 -261.41,261.38 z m 1076.71,-26.26 c 0,0 0,730.1 -684.23,730.1 H 777.555 V 2743.81 c 0,0 0,-730.06 684.255,-730.06 h 861.95 v 3138.07 0" /><path
         id="path20"
         style="fill:#ffffff;fill-opacity:1;fill-rule:nonzero;stroke:none"
         d="m 4571.05,240.711 c 0,-134.102 107.25,-240.011781 240.79,-240.011781 97.21,0 166.27,43.531281 166.27,43.531281 2.71,2.0312 5.4,5.3515 5.4,10.7304 V 226.672 c 0,6.68 -5.4,12.707 -12.07,12.707 H 4842.7 c -7.38,0 -12.75,-5.367 -12.75,-12.707 V 173.73 c 0,-6.699 5.37,-12.078 12.75,-12.078 h 53.66 v -57.07 c -13.42,-5.3828 -42.23,-16.7812 -79.85,-16.7812 -84.53,0 -150.93,70.5192 -150.93,153.5902 0,83.871 66.4,155.668 150.27,155.668 36.95,0 72.47,-13.411 101.33,-38.879 5.98,-5.41 12.06,-5.41 17.4,0 l 41.54,43.601 c 5.33,5.379 4.7,13.43 -0.66,18.75 -45.55,38.91 -103.27,62.371 -163.62,62.371 -133.54,0 -240.79,-107.961 -240.79,-242.191 z m -446.14,21.449 v 133.602 h 109.42 c 35.54,0 66.45,-29.532 66.45,-65.114 0,-37.617 -30.91,-68.488 -66.45,-68.488 H 4124.91 Z M 4037.17,19.4492 c 0,-6.6797 5.32,-12.74998 12.7,-12.74998 h 61.67 c 6.69,0 12.78,6.07028 12.78,12.74998 V 190.512 h 74.45 l 89.26,-177.7425 c 1.35,-2.6914 4.7,-6.07028 10.74,-6.07028 h 70.36 c 11.37,0 16.09,10.74998 11.37,19.48048 l -91.8,170.3323 c 58.31,23.457 99.17,73.699 99.17,135.488 0,79.84 -65.66,144.16 -146.16,144.16 h -191.84 c -7.38,0 -12.7,-6.039 -12.7,-12.738 V 19.4492 Z m -515.12,0 c 0,-6.6797 5.37,-12.74998 12.73,-12.74998 h 272.95 c 7.32,0 12.73,6.07028 12.73,12.74998 v 54.961 c 0,6.6484 -5.41,12.7187 -12.73,12.7187 H 3609.14 V 204.551 h 165.65 c 6.76,0 12.75,5.418 12.75,12.789 v 55.59 c 0,6.699 -5.99,12.75 -12.75,12.75 h -165.65 v 110.082 h 198.59 c 7.32,0 12.73,6.019 12.73,12.699 v 54.961 c 0,6.699 -5.41,12.738 -12.73,12.738 h -272.95 c -7.36,0 -12.73,-6.039 -12.73,-12.738 V 19.4492 Z M 3073.89,85.7695 V 205.281 h 73.17 c 34.9,0 68.46,-24.84 68.46,-58.41 0,-34.93 -26.86,-61.1015 -60.41,-61.1015 h -81.22 z m 0,193.1915 v 117.461 h 71.8 c 34.27,0 57.76,-23.492 57.76,-57.043 0,-33.617 -23.49,-60.418 -57.76,-60.418 h -71.8 z M 2987.45,19.4492 c 0,-6.6797 5.4,-12.74998 12.75,-12.74998 h 162.32 c 81.83,0 146.13,54.33988 146.13,129.40978 0,61.801 -51.61,97.993 -87.1,109.352 31.48,14.738 73.69,54.969 73.69,106.641 0,70.457 -61.63,124.058 -141.43,124.058 H 3000.2 c -7.35,0 -12.75,-6.039 -12.75,-12.738 V 19.4492 Z M 2397.13,240.762 c 0,84.59 69.12,155 153.63,155 84.55,0 154.33,-70.41 154.33,-155 0,-84.532 -69.78,-153.6331 -154.33,-153.6331 -84.51,0 -153.63,69.1011 -153.63,153.6331 z m -87.14,0 C 2309.99,106.59 2416.58,0 2550.76,0 c 134.22,0 241.44,106.59 241.44,240.762 0,134.179 -107.22,242.14 -241.44,242.14 -134.18,0 -240.77,-107.961 -240.77,-242.14 z M 1717.77,19.4492 c 0,-6.6797 6.02,-12.74998 12.7,-12.74998 h 60.99 c 7.38,0 12.74,6.07028 12.74,12.74998 V 307.82 h 0.7 L 2085.29,0 h 16.08 c 6.67,0 12.7,5.41016 12.7,12.0586 V 463.422 c 0,6.699 -6.03,12.738 -12.7,12.738 h -61.69 c -7.35,0 -12.7,-6.039 -12.7,-12.738 V 186.469 h -0.66 l -279.1,296.433 h -16.75 c -6.68,0 -12.7,-5.39 -12.7,-12.14 V 19.4492 Z m -563.5,221.3128 c 0,84.59 69.1,155 153.64,155 84.51,0 154.34,-70.41 154.34,-155 0,-84.532 -69.83,-153.6331 -154.34,-153.6331 -84.54,0 -153.64,69.1011 -153.64,153.6331 z m -87.12,0 C 1067.15,106.59 1173.71,0 1307.91,0 c 134.16,0 241.4,106.59 241.4,240.762 0,134.179 -107.24,242.14 -241.4,242.14 -134.2,0 -240.76,-107.961 -240.76,-242.14 z M 647.844,262.16 V 395.762 H 757.27 c 35.535,0 66.418,-29.532 66.418,-65.114 0,-37.617 -30.883,-68.488 -66.418,-68.488 H 647.844 Z M 560.051,19.4492 c 0,-6.6797 5.379,-12.74998 12.754,-12.74998 h 61.633 c 6.718,0 12.73,6.07028 12.73,12.74998 V 190.512 h 74.535 L 810.945,12.7695 c 1.305,-2.6914 4.7,-6.07028 10.711,-6.07028 h 70.348 c 11.437,0 16.078,10.74998 11.437,19.48048 L 811.555,196.5 c 58.347,23.469 99.25,73.711 99.25,135.5 0,79.84 -65.711,144.16 -146.192,144.16 H 572.805 c -7.375,0 -12.754,-6.039 -12.754,-12.738 V 19.4492 Z M 0,22.832 C 0,14.1211 6.69141,6.69922 16.0898,6.69922 h 58.9649 c 8.7148,0 16.0625,7.42188 16.0625,16.13278 V 227.359 L 266.195,11.3984 c 1.36,-1.99996 5.375,-4.69918 12.067,-4.69918 h 73.101 c 13.434,0 18.809,14.78128 12.129,23.49998 L 175.621,254.879 350.688,452.02 c 8.722,10.019 2.039,24.14 -10.704,24.14 h -67.062 c -6.051,0 -10.074,-3.371 -12.734,-6.699 L 91.1172,279 v 181.059 c 0,8.711 -7.3477,16.101 -16.0625,16.101 H 16.0898 C 6.69141,476.16 0,468.77 0,460.059 v -437.227 0" /><path
         id="path22"
         style="fill:#ffffff;fill-opacity:1;fill-rule:nonzero;stroke:none"
         d="m 3596.18,788.602 c 0,-6.653 5.99,-12.723 12.69,-12.723 h 61.01 c 7.33,0 12.74,6.07 12.74,12.723 V 1077 h 0.61 l 280.44,-307.789 h 16.1 c 6.69,0 12.68,5.32 12.68,12.059 v 451.32 c 0,6.66 -5.99,12.74 -12.68,12.74 h -61.68 c -7.36,0 -12.74,-6.08 -12.74,-12.74 V 955.629 h -0.63 l -279.08,296.401 h -16.77 c -6.7,0 -12.69,-5.36 -12.69,-12.06 V 788.602 Z m -576.95,221.338 c 0,84.57 69.12,154.95 153.67,154.95 84.49,0 154.28,-70.38 154.28,-154.95 0,-84.561 -69.79,-153.631 -154.28,-153.631 -84.55,0 -153.67,69.07 -153.67,153.631 z m -87.1,0 c 0,-134.202 106.55,-240.729 240.77,-240.729 134.14,0 241.43,106.527 241.43,240.729 0,134.17 -107.29,242.09 -241.43,242.09 -134.22,0 -240.77,-107.92 -240.77,-242.09 z M 2648.39,788.602 c 0,-6.653 6.06,-12.723 12.74,-12.723 h 62.3 c 6.74,0 12.76,6.07 12.76,12.723 v 443.988 c 0,6.66 -6.02,12.74 -12.76,12.74 h -62.3 c -6.68,0 -12.74,-6.08 -12.74,-12.74 V 788.602 Z m -631.82,221.288 c 0,-134.101 107.23,-239.999 240.75,-239.999 97.27,0 166.32,43.507 166.32,43.507 2.68,2.012 5.36,5.372 5.36,10.75 V 995.82 c 0,6.74 -5.36,12.72 -12.06,12.72 H 2288.2 c -7.38,0 -12.74,-5.33 -12.74,-12.72 v -52.91 c 0,-6.719 5.36,-12.058 12.74,-12.058 h 53.69 v -57.11 c -13.44,-5.371 -42.27,-16.762 -79.84,-16.762 -84.57,0 -150.98,70.5 -150.98,153.58 0,83.91 66.41,155.71 150.27,155.71 36.95,0 72.5,-13.44 101.33,-38.92 5.99,-5.4 12.08,-5.4 17.39,0 l 41.57,43.61 c 5.31,5.35 4.69,13.4 -0.67,18.73 -45.59,38.87 -103.24,62.34 -163.64,62.34 -133.52,0 -240.75,-107.92 -240.75,-242.14 z M 1534.95,788.602 c 0,-6.653 5.39,-12.723 12.76,-12.723 h 272.92 c 7.37,0 12.75,6.07 12.75,12.723 v 54.968 c 0,6.668 -5.38,12.739 -12.75,12.739 h -198.55 v 117.48 h 165.7 c 6.69,0 12.76,5.332 12.76,12.723 v 55.598 c 0,6.7 -6.07,12.69 -12.76,12.69 h -165.7 v 110.09 h 198.55 c 7.37,0 12.75,6.07 12.75,12.73 v 54.97 c 0,6.75 -5.38,12.74 -12.75,12.74 h -272.92 c -7.37,0 -12.76,-5.99 -12.76,-12.74 V 788.602 Z m -479.61,242.758 v 133.53 h 109.36 c 35.55,0 66.46,-29.49 66.46,-65.06 0,-37.61 -30.91,-68.47 -66.46,-68.47 H 1055.34 Z M 967.543,788.602 c 0,-6.653 5.367,-12.723 12.746,-12.723 h 61.621 c 6.69,0 12.73,6.07 12.73,12.723 V 959.66 h 74.49 l 89.24,-177.711 c 1.36,-2.738 4.7,-6.07 10.76,-6.07 h 70.37 c 11.37,0 16.06,10.769 11.37,19.473 l -91.82,170.386 c 58.35,23.403 99.19,73.672 99.19,135.392 0,79.84 -65.65,144.2 -146.13,144.2 H 980.289 c -7.379,0 -12.746,-5.99 -12.746,-12.74 v -443.988 0" /></g></g></svg>
